<svg id='109'
xmlns="http://www.w3.org/2000/svg" width="505" height="481">
<style>
polygon { stroke: black; stroke-width: 5px; stroke-linejoin: round;}
.green {fill: #7cfc00;}
.orange {fill: #ffa500;}
.blue {fill: #00ffff;}
.beige {fill: #fffacd;}
.pink {fill: #ffc0cb;}
.grey {fill: #222;}
</style>
<polygon class="beige" points="402 471 302 471 272 430 372 430"/>
<polygon class="orange" points="302 471 202 471 233 430 272 430"/>
<polygon class="pink" points="202 471 102 471 132 430 233 430"/>
<polygon class="green" points="102 471 71 376 101 334 132 430"/>
<polygon class="beige" points="71 376 40 281 89 297 101 334"/>
<polygon class="beige" points="40 281 10 186 58 202 89 297"/>
<polygon class="pink" points="10 186 90 127 139 143 58 202"/>
<polygon class="green" points="90 127 171 68 171 120 139 143"/>
<polygon class="orange" points="171 68 252 10 252 61 171 120"/>
<polygon class="blue" points="252 10 333 68 334 120 252 61"/>
<polygon class="pink" points="333 68 414 127 365 143 334 120"/>
<polygon class="green" points="414 127 495 186 446 202 365 143"/>
<polygon class="orange" points="495 186 464 281 415 297 446 202"/>
<polygon class="blue" points="464 281 433 376 403 334 415 297"/>
<polygon class="blue" points="433 376 402 471 372 430 403 334"/>
<polygon class="grey" points="372 430 272 430 302 334 403 334"/>
<polygon class="grey" points="272 430 233 430 202 334 302 334"/>
<polygon class="grey" points="132 430 101 334 202 334 233 430"/>
<polygon class="grey" points="101 334 89 297 171 238 202 334"/>
<polygon class="grey" points="58 202 139 143 171 238 89 297"/>
<polygon class="grey" points="139 143 171 120 252 180 171 238"/>
<polygon class="grey" points="252 61 334 120 252 180 171 120"/>
<polygon class="grey" points="334 120 365 143 333 238 252 180"/>
<polygon class="grey" points="446 202 415 297 333 238 365 143"/>
<polygon class="grey" points="415 297 403 334 302 334 333 238"/>
<polygon class="grey" points="302 334 202 334 171 238 252 180 333 238"/>
</svg>